<svg xmlns="http://www.w3.org/2000/svg" viewBox="0 0 800 1100" width="800" height="1100" role="img" aria-label="Marigold tapestry placeholder">
  <rect width="800" height="1100" fill="#FF6B6B"/>
  <g>
    <rect x="40" y="40" width="720" height="1020" fill="#FFFDF5" stroke="#000" stroke-width="10"/>
    <g stroke="#000" stroke-width="5" fill="none">
      <pattern id="grid2" x="0" y="0" width="60" height="60" patternUnits="userSpaceOnUse">
        <path d="M60 0 L0 0 0 60" stroke="#000" stroke-width="2"/>
      </pattern>
      <rect x="40" y="40" width="720" height="1020" fill="url(#grid2)" opacity="0.4"/>
    </g>
    <g transform="translate(120 140)">
      <g fill="#FFD93D" stroke="#000" stroke-width="6">
        <circle cx="80" cy="80" r="60"/>
        <circle cx="280" cy="80" r="60"/>
        <circle cx="480" cy="80" r="60"/>
        <circle cx="80" cy="280" r="60"/>
        <circle cx="280" cy="280" r="60"/>
        <circle cx="480" cy="280" r="60"/>
        <circle cx="80" cy="480" r="60"/>
        <circle cx="280" cy="480" r="60"/>
        <circle cx="480" cy="480" r="60"/>
        <circle cx="80" cy="680" r="60"/>
        <circle cx="280" cy="680" r="60"/>
        <circle cx="480" cy="680" r="60"/>
      </g>
      <g fill="#A7F3D0" stroke="#000" stroke-width="6">
        <rect x="40" y="180" width="80" height="80"/>
        <rect x="240" y="180" width="80" height="80"/>
        <rect x="440" y="180" width="80" height="80"/>
        <rect x="40" y="380" width="80" height="80"/>
        <rect x="240" y="380" width="80" height="80"/>
        <rect x="440" y="380" width="80" height="80"/>
        <rect x="40" y="580" width="80" height="80"/>
        <rect x="240" y="580" width="80" height="80"/>
        <rect x="440" y="580" width="80" height="80"/>
      </g>
    </g>
    <rect x="60" y="60" width="140" height="40" fill="#000"/>
    <text x="130" y="90" text-anchor="middle" fill="#FF6B6B" font-family="Helvetica, Arial, sans-serif" font-size="22" font-weight="900" letter-spacing="2">№ 02</text>
  </g>
</svg>
