<svg xmlns="http://www.w3.org/2000/svg" viewBox="0 0 800 800" width="800" height="800" role="img" aria-label="Violet quilt placeholder">
  <rect width="800" height="800" fill="#C4B5FD"/>
  <g stroke="#000" stroke-width="8">
    <g transform="translate(40 40)">
      <rect width="180" height="180" x="0" y="0" fill="#FFD93D"/>
      <rect width="180" height="180" x="180" y="0" fill="#FF6B6B"/>
      <rect width="180" height="180" x="360" y="0" fill="#A7F3D0"/>
      <rect width="180" height="180" x="540" y="0" fill="#93C5FD"/>

      <rect width="180" height="180" x="0" y="180" fill="#A7F3D0"/>
      <rect width="180" height="180" x="180" y="180" fill="#C4B5FD"/>
      <rect width="180" height="180" x="360" y="180" fill="#FFD93D"/>
      <rect width="180" height="180" x="540" y="180" fill="#FF6B6B"/>

      <rect width="180" height="180" x="0" y="360" fill="#FF6B6B"/>
      <rect width="180" height="180" x="180" y="360" fill="#FFD93D"/>
      <rect width="180" height="180" x="360" y="360" fill="#93C5FD"/>
      <rect width="180" height="180" x="540" y="360" fill="#A7F3D0"/>

      <rect width="180" height="180" x="0" y="540" fill="#93C5FD"/>
      <rect width="180" height="180" x="180" y="540" fill="#A7F3D0"/>
      <rect width="180" height="180" x="360" y="540" fill="#FF6B6B"/>
      <rect width="180" height="180" x="540" y="540" fill="#FFD93D"/>

      <g fill="none" stroke="#000" stroke-width="4">
        <path d="M0 0 L180 180 M180 0 L0 180"/>
        <path d="M180 0 L360 180 M360 0 L180 180"/>
        <path d="M360 0 L540 180 M540 0 L360 180"/>
        <path d="M540 0 L720 180 M720 0 L540 180"/>
        <path d="M0 180 L180 360 M180 180 L0 360"/>
        <path d="M180 180 L360 360 M360 180 L180 360"/>
        <path d="M360 180 L540 360 M540 180 L360 360"/>
        <path d="M540 180 L720 360 M720 180 L540 360"/>
        <path d="M0 360 L180 540 M180 360 L0 540"/>
        <path d="M180 360 L360 540 M360 360 L180 540"/>
        <path d="M360 360 L540 540 M540 360 L360 540"/>
        <path d="M540 360 L720 540 M720 360 L540 540"/>
        <path d="M0 540 L180 720 M180 540 L0 720"/>
        <path d="M180 540 L360 720 M360 540 L180 720"/>
        <path d="M360 540 L540 720 M540 540 L360 720"/>
        <path d="M540 540 L720 720 M720 540 L540 720"/>
      </g>
    </g>
  </g>
  <rect x="60" y="60" width="140" height="40" fill="#000"/>
  <text x="130" y="90" text-anchor="middle" fill="#C4B5FD" font-family="Helvetica, sans-serif" font-size="22" font-weight="900" letter-spacing="2">№ 04</text>
</svg>
