<svg xmlns="http://www.w3.org/2000/svg" viewBox="0 0 900 700" width="900" height="700" role="img" aria-label="Beeswax candles placeholder">
  <rect width="900" height="700" fill="#FFFDF5"/>
  <rect x="40" y="40" width="820" height="620" fill="#FFD93D" stroke="#000" stroke-width="10"/>
  <g stroke="#000" stroke-width="10">
    <rect x="160" y="220" width="80" height="380" fill="#FF6B6B"/>
    <rect x="280" y="160" width="80" height="440" fill="#FFFDF5"/>
    <rect x="400" y="260" width="80" height="340" fill="#C4B5FD"/>
    <rect x="520" y="180" width="80" height="420" fill="#A7F3D0"/>
    <rect x="640" y="240" width="80" height="360" fill="#93C5FD"/>
    <g stroke="#000" stroke-width="6">
      <line x1="200" y1="190" x2="200" y2="220"/>
      <line x1="320" y1="130" x2="320" y2="160"/>
      <line x1="440" y1="230" x2="440" y2="260"/>
      <line x1="560" y1="150" x2="560" y2="180"/>
      <line x1="680" y1="210" x2="680" y2="240"/>
    </g>
    <g fill="#FF6B6B" stroke="#000" stroke-width="4">
      <path d="M186 180 q14 -50 28 0 z"/>
      <path d="M306 120 q14 -50 28 0 z"/>
      <path d="M426 220 q14 -50 28 0 z"/>
      <path d="M546 140 q14 -50 28 0 z"/>
      <path d="M666 200 q14 -50 28 0 z"/>
    </g>
  </g>
  <rect x="60" y="60" width="140" height="40" fill="#000"/>
  <text x="130" y="90" text-anchor="middle" fill="#FFD93D" font-family="Helvetica, sans-serif" font-size="22" font-weight="900" letter-spacing="2">№ 08</text>
</svg>
